<svg version="1" xmlns="http://www.w3.org/2000/svg" width="400" height="400" viewBox="0 0 300.000000 300.000000"><path d="M59.2 42.1l-9.3 9 .1 51.2v56.4c0 4.7-.3 5.3-2.4 5.9-4 1-6.3 4.4-10.1 14.9-5.9 16.5-7.8 24.9-7.8 36.1 0 13.8 2.3 18.1 10.2 19.1 3.6.5 4.4.2 7.7-3.1l3.6-3.6-.7-8.2c-.6-8.1.2-15.3 2.5-21.2l1.1-3 7.2 7.2c4 4 8 7.2 9 7.2 1.6 0 1.7 2 1.7 25.3v25.3l2.8 2.6c3.7 3.6 7.3 4.3 11.4 2.4 5.8-2.8 6-3.6 6.6-30.8l.5-24.8h111.6l.3 25.5.3 25.5 2.7 2.6c2.1 2.2 3.6 2.7 7.2 2.7 9.6 0 10.6-3 10.6-32.8V210h2.7c2.1 0 4.6-1.8 9.9-7.1l7.2-7.2 1.1 3.9c1.9 7.1 2.9 17.2 2.4 23.3-.5 5.7-.4 6.1 2.5 9 2.5 2.6 3.9 3.1 7.6 3.1 7.9 0 10.6-4.4 10.6-17 0-9.2-1.6-17.7-6.7-35.3-3.9-13.6-6.2-17.3-11.1-17.9l-2.7-.3-.3-57-.2-57-8.8-8.7-8.7-8.8h-163l-9.3 9.1z"/></svg>